<mxfile host="app.diagrams.net" modified="2023-11-30T16:45:38.126Z" agent="Mozilla/5.0 (Windows NT 10.0; Win64; x64) AppleWebKit/537.36 (KHTML, like Gecko) Chrome/116.0.5845.686 YaBrowser/23.9.5.686 Yowser/2.5 Safari/537.36" etag="UOs_-utAAfNmO-UuzaBT" version="22.1.5" type="github">
  <diagram name="Page-1" id="2YBvvXClWsGukQMizWep">
    <mxGraphModel dx="906" dy="671" grid="1" gridSize="10" guides="1" tooltips="1" connect="1" arrows="1" fold="1" page="1" pageScale="1" pageWidth="850" pageHeight="1100" math="0" shadow="0">
      <root>
        <mxCell id="0" />
        <mxCell id="1" parent="0" />
        <mxCell id="aM9ryv3xv72pqoxQDRHE-1" value="Система" style="shape=umlLifeline;perimeter=lifelinePerimeter;whiteSpace=wrap;html=1;container=0;dropTarget=0;collapsible=0;recursiveResize=0;outlineConnect=0;portConstraint=eastwest;newEdgeStyle={&quot;edgeStyle&quot;:&quot;elbowEdgeStyle&quot;,&quot;elbow&quot;:&quot;vertical&quot;,&quot;curved&quot;:0,&quot;rounded&quot;:0};fillColor=#dae8fc;strokeColor=default;" parent="1" vertex="1">
          <mxGeometry x="600" y="120" width="100" height="810" as="geometry" />
        </mxCell>
        <mxCell id="PPawQxUKXSfGrflfjzhh-15" value="&lt;b&gt;&lt;font style=&quot;font-size: 15px;&quot;&gt;Диаграмма последовательности для сценария &quot;Сдача домашней работы&quot;&lt;/font&gt;&lt;/b&gt;" style="text;html=1;strokeColor=none;fillColor=none;align=center;verticalAlign=middle;whiteSpace=wrap;rounded=0;strokeWidth=1;" vertex="1" parent="1">
          <mxGeometry x="190" y="20" width="430" height="30" as="geometry" />
        </mxCell>
        <mxCell id="PPawQxUKXSfGrflfjzhh-18" value="" style="endArrow=none;dashed=1;html=1;rounded=0;" edge="1" parent="1">
          <mxGeometry width="50" height="50" relative="1" as="geometry">
            <mxPoint x="210.73875000000024" y="180" as="sourcePoint" />
            <mxPoint x="211.77" y="130" as="targetPoint" />
          </mxGeometry>
        </mxCell>
        <mxCell id="PPawQxUKXSfGrflfjzhh-20" value="" style="endArrow=none;dashed=1;html=1;rounded=0;" edge="1" parent="1">
          <mxGeometry width="50" height="50" relative="1" as="geometry">
            <mxPoint x="211.75" y="940" as="sourcePoint" />
            <mxPoint x="210.75" y="880" as="targetPoint" />
          </mxGeometry>
        </mxCell>
        <mxCell id="PPawQxUKXSfGrflfjzhh-14" value="" style="rounded=0;whiteSpace=wrap;html=1;direction=south;fillColor=#dae8fc;strokeColor=#6c8ebf;" vertex="1" parent="1">
          <mxGeometry x="200" y="180" width="22.5" height="700" as="geometry" />
        </mxCell>
        <mxCell id="PPawQxUKXSfGrflfjzhh-21" value="" style="endArrow=classic;html=1;rounded=0;exitX=0;exitY=1;exitDx=0;exitDy=0;entryX=0.045;entryY=1.087;entryDx=0;entryDy=0;entryPerimeter=0;" edge="1" parent="1">
          <mxGeometry width="50" height="50" relative="1" as="geometry">
            <mxPoint x="222.5" y="270.000000000004" as="sourcePoint" />
            <mxPoint x="635.325" y="268.07500000000005" as="targetPoint" />
          </mxGeometry>
        </mxCell>
        <mxCell id="PPawQxUKXSfGrflfjzhh-22" value="1. Запрос на вход в аккаунт" style="text;html=1;strokeColor=none;fillColor=none;align=center;verticalAlign=middle;whiteSpace=wrap;rounded=0;" vertex="1" parent="1">
          <mxGeometry x="345" y="240" width="160" height="30" as="geometry" />
        </mxCell>
        <mxCell id="PPawQxUKXSfGrflfjzhh-25" value="loop" style="shape=umlFrame;whiteSpace=wrap;html=1;pointerEvents=0;" vertex="1" parent="1">
          <mxGeometry x="60" y="230" width="800" height="210" as="geometry" />
        </mxCell>
        <mxCell id="PPawQxUKXSfGrflfjzhh-27" value="" style="html=1;verticalAlign=bottom;endArrow=open;dashed=1;endSize=8;curved=0;rounded=0;entryX=0.159;entryY=0.5;entryDx=0;entryDy=0;entryPerimeter=0;" edge="1" parent="1">
          <mxGeometry x="-0.0233" y="-10" relative="1" as="geometry">
            <mxPoint x="652.5" y="350.03999999999996" as="sourcePoint" />
            <mxPoint x="222.5" y="350" as="targetPoint" />
            <mxPoint as="offset" />
          </mxGeometry>
        </mxCell>
        <mxCell id="PPawQxUKXSfGrflfjzhh-28" value="2. Ответ системы (неуспешный вход)" style="text;html=1;align=center;verticalAlign=middle;resizable=0;points=[];autosize=1;strokeColor=none;fillColor=none;" vertex="1" parent="1">
          <mxGeometry x="310" y="320" width="230" height="30" as="geometry" />
        </mxCell>
        <mxCell id="PPawQxUKXSfGrflfjzhh-29" value="" style="endArrow=none;dashed=1;html=1;rounded=0;entryX=1.009;entryY=0.406;entryDx=0;entryDy=0;entryPerimeter=0;exitX=0;exitY=1;exitDx=0;exitDy=0;" edge="1" parent="1">
          <mxGeometry width="50" height="50" relative="1" as="geometry">
            <mxPoint x="127.5" y="460.68" as="sourcePoint" />
            <mxPoint x="773.26" y="459.99999999999994" as="targetPoint" />
          </mxGeometry>
        </mxCell>
        <mxCell id="PPawQxUKXSfGrflfjzhh-31" value="[Успешный вход]" style="text;html=1;strokeColor=none;fillColor=none;align=center;verticalAlign=middle;whiteSpace=wrap;rounded=0;" vertex="1" parent="1">
          <mxGeometry x="130" y="470" width="60" height="30" as="geometry" />
        </mxCell>
        <mxCell id="PPawQxUKXSfGrflfjzhh-34" value="Студент&lt;br&gt;" style="shape=umlActor;verticalLabelPosition=bottom;verticalAlign=top;html=1;outlineConnect=0;" vertex="1" parent="1">
          <mxGeometry x="196.25" y="90" width="30" height="60" as="geometry" />
        </mxCell>
        <mxCell id="PPawQxUKXSfGrflfjzhh-35" value="" style="rounded=0;whiteSpace=wrap;html=1;rotation=90;fillColor=#dae8fc;strokeColor=#6c8ebf;" vertex="1" parent="1">
          <mxGeometry x="533.21" y="371.48" width="233.59" height="25" as="geometry" />
        </mxCell>
        <mxCell id="PPawQxUKXSfGrflfjzhh-48" value="alt" style="shape=umlFrame;whiteSpace=wrap;html=1;pointerEvents=0;" vertex="1" parent="1">
          <mxGeometry x="127.5" y="300" width="640" height="230" as="geometry" />
        </mxCell>
        <mxCell id="PPawQxUKXSfGrflfjzhh-50" value="[Введен неверный логин или пароль]" style="text;html=1;strokeColor=none;fillColor=none;align=center;verticalAlign=middle;whiteSpace=wrap;rounded=0;" vertex="1" parent="1">
          <mxGeometry x="115" y="371.48" width="90" height="50" as="geometry" />
        </mxCell>
        <mxCell id="PPawQxUKXSfGrflfjzhh-51" value="" style="html=1;verticalAlign=bottom;endArrow=open;dashed=1;endSize=8;curved=0;rounded=0;entryX=0.159;entryY=0.5;entryDx=0;entryDy=0;entryPerimeter=0;" edge="1" parent="1">
          <mxGeometry x="-0.0233" y="-10" relative="1" as="geometry">
            <mxPoint x="640" y="500.5" as="sourcePoint" />
            <mxPoint x="222.5" y="500" as="targetPoint" />
            <mxPoint as="offset" />
          </mxGeometry>
        </mxCell>
        <mxCell id="PPawQxUKXSfGrflfjzhh-52" value="&lt;span style=&quot;color: rgb(0, 0, 0); font-family: Helvetica; font-size: 12px; font-style: normal; font-variant-ligatures: normal; font-variant-caps: normal; font-weight: 400; letter-spacing: normal; orphans: 2; text-align: center; text-indent: 0px; text-transform: none; widows: 2; word-spacing: 0px; -webkit-text-stroke-width: 0px; background-color: rgb(251, 251, 251); text-decoration-thickness: initial; text-decoration-style: initial; text-decoration-color: initial; float: none; display: inline !important;&quot;&gt;3. Ответ системы (успешный вход)&lt;/span&gt;" style="text;whiteSpace=wrap;html=1;" vertex="1" parent="1">
          <mxGeometry x="321" y="480" width="240" height="40" as="geometry" />
        </mxCell>
        <mxCell id="PPawQxUKXSfGrflfjzhh-60" value="4. Загрузка домашнего задания" style="text;html=1;strokeColor=none;fillColor=none;align=center;verticalAlign=middle;whiteSpace=wrap;rounded=0;" vertex="1" parent="1">
          <mxGeometry x="320" y="550" width="220" height="30" as="geometry" />
        </mxCell>
        <mxCell id="PPawQxUKXSfGrflfjzhh-61" value="" style="endArrow=open;endFill=1;endSize=12;html=1;rounded=0;" edge="1" parent="1">
          <mxGeometry width="160" relative="1" as="geometry">
            <mxPoint x="222.5" y="580" as="sourcePoint" />
            <mxPoint x="640" y="580" as="targetPoint" />
          </mxGeometry>
        </mxCell>
        <mxCell id="PPawQxUKXSfGrflfjzhh-66" value="Обработка загруженной работы" style="text;html=1;strokeColor=none;fillColor=none;align=center;verticalAlign=middle;whiteSpace=wrap;rounded=0;" vertex="1" parent="1">
          <mxGeometry x="660" y="720" width="200" height="30" as="geometry" />
        </mxCell>
        <mxCell id="PPawQxUKXSfGrflfjzhh-69" value="alt" style="shape=umlFrame;whiteSpace=wrap;html=1;pointerEvents=0;" vertex="1" parent="1">
          <mxGeometry x="60" y="610" width="800" height="230" as="geometry" />
        </mxCell>
        <mxCell id="PPawQxUKXSfGrflfjzhh-73" value="" style="rounded=0;whiteSpace=wrap;html=1;rotation=90;fillColor=#dae8fc;strokeColor=#6c8ebf;" vertex="1" parent="1">
          <mxGeometry x="538.2" y="678.22" width="223.63" height="25" as="geometry" />
        </mxCell>
        <mxCell id="PPawQxUKXSfGrflfjzhh-75" value="[Работа сдана после дедлайна]" style="text;html=1;strokeColor=none;fillColor=none;align=center;verticalAlign=middle;whiteSpace=wrap;rounded=0;" vertex="1" parent="1">
          <mxGeometry x="90" y="650" width="90" height="50" as="geometry" />
        </mxCell>
        <mxCell id="PPawQxUKXSfGrflfjzhh-76" value="[Работа сдана до дедлайна]" style="text;html=1;strokeColor=none;fillColor=none;align=center;verticalAlign=middle;whiteSpace=wrap;rounded=0;" vertex="1" parent="1">
          <mxGeometry x="80" y="740" width="90" height="50" as="geometry" />
        </mxCell>
        <mxCell id="PPawQxUKXSfGrflfjzhh-84" value="" style="shape=umlDestroy;whiteSpace=wrap;html=1;strokeWidth=3;targetShapes=umlLifeline;" vertex="1" parent="1">
          <mxGeometry x="196.25" y="920" width="30" height="30" as="geometry" />
        </mxCell>
        <mxCell id="PPawQxUKXSfGrflfjzhh-87" value="" style="endArrow=none;dashed=1;html=1;rounded=0;entryX=1;entryY=0.478;entryDx=0;entryDy=0;entryPerimeter=0;" edge="1" parent="1" target="PPawQxUKXSfGrflfjzhh-69">
          <mxGeometry width="50" height="50" relative="1" as="geometry">
            <mxPoint x="60" y="720" as="sourcePoint" />
            <mxPoint x="110" y="670" as="targetPoint" />
          </mxGeometry>
        </mxCell>
        <mxCell id="PPawQxUKXSfGrflfjzhh-88" value="" style="shape=umlDestroy;whiteSpace=wrap;html=1;strokeWidth=3;targetShapes=umlLifeline;" vertex="1" parent="1">
          <mxGeometry x="635" y="920" width="30" height="30" as="geometry" />
        </mxCell>
        <mxCell id="PPawQxUKXSfGrflfjzhh-91" value="5. Работа не принята" style="endArrow=open;endSize=12;dashed=1;html=1;rounded=0;" edge="1" parent="1">
          <mxGeometry width="160" relative="1" as="geometry">
            <mxPoint x="640" y="670" as="sourcePoint" />
            <mxPoint x="220" y="670" as="targetPoint" />
          </mxGeometry>
        </mxCell>
        <mxCell id="PPawQxUKXSfGrflfjzhh-93" value="6. Работа принята" style="endArrow=open;endSize=12;dashed=1;html=1;rounded=0;entryX=0.826;entryY=1.3;entryDx=0;entryDy=0;entryPerimeter=0;" edge="1" parent="1">
          <mxGeometry width="160" relative="1" as="geometry">
            <mxPoint x="646.5" y="801.8" as="sourcePoint" />
            <mxPoint x="222.5" y="799.9999999999998" as="targetPoint" />
            <mxPoint as="offset" />
          </mxGeometry>
        </mxCell>
        <mxCell id="PPawQxUKXSfGrflfjzhh-94" style="edgeStyle=orthogonalEdgeStyle;rounded=0;orthogonalLoop=1;jettySize=auto;html=1;exitX=0.75;exitY=0;exitDx=0;exitDy=0;entryX=0.956;entryY=0.021;entryDx=0;entryDy=0;entryPerimeter=0;" edge="1" parent="1" source="PPawQxUKXSfGrflfjzhh-73" target="PPawQxUKXSfGrflfjzhh-73">
          <mxGeometry relative="1" as="geometry">
            <Array as="points">
              <mxPoint x="820" y="747" />
              <mxPoint x="820" y="793" />
            </Array>
          </mxGeometry>
        </mxCell>
      </root>
    </mxGraphModel>
  </diagram>
</mxfile>
